<mxfile host="app.diagrams.net" agent="Mozilla/5.0 (Windows NT 10.0; Win64; x64) AppleWebKit/537.36 (KHTML, like Gecko) Chrome/132.0.0.0 Safari/537.36 Edg/132.0.0.0" version="26.1.1">
  <diagram id="R2lEEEUBdFMjLlhIrx00" name="Page-1">
    <mxGraphModel dx="1644" dy="1573" grid="1" gridSize="10" guides="1" tooltips="1" connect="1" arrows="1" fold="1" page="1" pageScale="1" pageWidth="850" pageHeight="1100" math="0" shadow="0" extFonts="Permanent Marker^https://fonts.googleapis.com/css?family=Permanent+Marker">
      <root>
        <mxCell id="0" />
        <mxCell id="1" parent="0" />
        <mxCell id="C-vyLk0tnHw3VtMMgP7b-23" value="Users" style="shape=table;startSize=30;container=1;collapsible=1;childLayout=tableLayout;fixedRows=1;rowLines=0;fontStyle=1;align=center;resizeLast=1;" parent="1" vertex="1">
          <mxGeometry x="30" y="178" width="250" height="100" as="geometry" />
        </mxCell>
        <mxCell id="C-vyLk0tnHw3VtMMgP7b-24" value="" style="shape=partialRectangle;collapsible=0;dropTarget=0;pointerEvents=0;fillColor=none;points=[[0,0.5],[1,0.5]];portConstraint=eastwest;top=0;left=0;right=0;bottom=1;" parent="C-vyLk0tnHw3VtMMgP7b-23" vertex="1">
          <mxGeometry y="30" width="250" height="30" as="geometry" />
        </mxCell>
        <mxCell id="C-vyLk0tnHw3VtMMgP7b-25" value="PK" style="shape=partialRectangle;overflow=hidden;connectable=0;fillColor=none;top=0;left=0;bottom=0;right=0;fontStyle=1;" parent="C-vyLk0tnHw3VtMMgP7b-24" vertex="1">
          <mxGeometry width="50" height="30" as="geometry">
            <mxRectangle width="50" height="30" as="alternateBounds" />
          </mxGeometry>
        </mxCell>
        <mxCell id="C-vyLk0tnHw3VtMMgP7b-26" value="" style="shape=partialRectangle;overflow=hidden;connectable=0;fillColor=none;top=0;left=0;bottom=0;right=0;align=left;spacingLeft=6;fontStyle=5;" parent="C-vyLk0tnHw3VtMMgP7b-24" vertex="1">
          <mxGeometry x="50" width="200" height="30" as="geometry">
            <mxRectangle width="200" height="30" as="alternateBounds" />
          </mxGeometry>
        </mxCell>
        <mxCell id="C-vyLk0tnHw3VtMMgP7b-27" value="" style="shape=partialRectangle;collapsible=0;dropTarget=0;pointerEvents=0;fillColor=none;points=[[0,0.5],[1,0.5]];portConstraint=eastwest;top=0;left=0;right=0;bottom=0;" parent="C-vyLk0tnHw3VtMMgP7b-23" vertex="1">
          <mxGeometry y="60" width="250" height="30" as="geometry" />
        </mxCell>
        <mxCell id="C-vyLk0tnHw3VtMMgP7b-28" value="User_ID" style="shape=partialRectangle;overflow=hidden;connectable=0;fillColor=none;top=0;left=0;bottom=0;right=0;" parent="C-vyLk0tnHw3VtMMgP7b-27" vertex="1">
          <mxGeometry width="50" height="30" as="geometry">
            <mxRectangle width="50" height="30" as="alternateBounds" />
          </mxGeometry>
        </mxCell>
        <mxCell id="C-vyLk0tnHw3VtMMgP7b-29" value="" style="shape=partialRectangle;overflow=hidden;connectable=0;fillColor=none;top=0;left=0;bottom=0;right=0;align=left;spacingLeft=6;" parent="C-vyLk0tnHw3VtMMgP7b-27" vertex="1">
          <mxGeometry x="50" width="200" height="30" as="geometry">
            <mxRectangle width="200" height="30" as="alternateBounds" />
          </mxGeometry>
        </mxCell>
        <mxCell id="8-64ufqz5OiNv8aODQqd-1" value="Create" style="rhombus;whiteSpace=wrap;html=1;" vertex="1" parent="1">
          <mxGeometry x="370" y="178" width="80" height="80" as="geometry" />
        </mxCell>
        <mxCell id="8-64ufqz5OiNv8aODQqd-5" value="Post" style="whiteSpace=wrap;html=1;aspect=fixed;" vertex="1" parent="1">
          <mxGeometry x="620" y="143" width="120" height="120" as="geometry" />
        </mxCell>
        <mxCell id="8-64ufqz5OiNv8aODQqd-11" style="edgeStyle=orthogonalEdgeStyle;rounded=0;orthogonalLoop=1;jettySize=auto;html=1;entryX=1;entryY=0.5;entryDx=0;entryDy=0;" edge="1" parent="1" source="8-64ufqz5OiNv8aODQqd-7" target="8-64ufqz5OiNv8aODQqd-10">
          <mxGeometry relative="1" as="geometry">
            <Array as="points">
              <mxPoint x="680" y="503" />
            </Array>
          </mxGeometry>
        </mxCell>
        <mxCell id="8-64ufqz5OiNv8aODQqd-7" value="have" style="rhombus;whiteSpace=wrap;html=1;" vertex="1" parent="1">
          <mxGeometry x="640" y="358" width="80" height="80" as="geometry" />
        </mxCell>
        <mxCell id="8-64ufqz5OiNv8aODQqd-10" value="Comment" style="whiteSpace=wrap;html=1;aspect=fixed;" vertex="1" parent="1">
          <mxGeometry x="410" y="428" width="150" height="150" as="geometry" />
        </mxCell>
        <mxCell id="8-64ufqz5OiNv8aODQqd-13" value="" style="endArrow=none;html=1;rounded=0;entryX=0.5;entryY=1;entryDx=0;entryDy=0;exitX=0.5;exitY=0;exitDx=0;exitDy=0;" edge="1" parent="1" source="8-64ufqz5OiNv8aODQqd-7" target="8-64ufqz5OiNv8aODQqd-5">
          <mxGeometry width="50" height="50" relative="1" as="geometry">
            <mxPoint x="380" y="408" as="sourcePoint" />
            <mxPoint x="430" y="358" as="targetPoint" />
            <Array as="points" />
          </mxGeometry>
        </mxCell>
        <mxCell id="8-64ufqz5OiNv8aODQqd-14" value="1" style="text;html=1;align=center;verticalAlign=middle;resizable=0;points=[];autosize=1;strokeColor=none;fillColor=none;" vertex="1" parent="1">
          <mxGeometry x="685" y="296" width="30" height="30" as="geometry" />
        </mxCell>
        <mxCell id="8-64ufqz5OiNv8aODQqd-15" value="n" style="text;html=1;align=center;verticalAlign=middle;resizable=0;points=[];autosize=1;strokeColor=none;fillColor=none;" vertex="1" parent="1">
          <mxGeometry x="675" y="486" width="30" height="30" as="geometry" />
        </mxCell>
        <mxCell id="8-64ufqz5OiNv8aODQqd-16" value="" style="endArrow=none;html=1;rounded=0;exitX=1;exitY=-0.011;exitDx=0;exitDy=0;exitPerimeter=0;entryX=0;entryY=0.5;entryDx=0;entryDy=0;" edge="1" parent="1" source="C-vyLk0tnHw3VtMMgP7b-27" target="8-64ufqz5OiNv8aODQqd-1">
          <mxGeometry width="50" height="50" relative="1" as="geometry">
            <mxPoint x="310" y="258" as="sourcePoint" />
            <mxPoint x="360" y="208" as="targetPoint" />
          </mxGeometry>
        </mxCell>
        <mxCell id="8-64ufqz5OiNv8aODQqd-17" value="1" style="text;html=1;align=center;verticalAlign=middle;resizable=0;points=[];autosize=1;strokeColor=none;fillColor=none;" vertex="1" parent="1">
          <mxGeometry x="325" y="196" width="30" height="30" as="geometry" />
        </mxCell>
        <mxCell id="8-64ufqz5OiNv8aODQqd-18" style="edgeStyle=orthogonalEdgeStyle;rounded=0;orthogonalLoop=1;jettySize=auto;html=1;entryX=0.033;entryY=0.622;entryDx=0;entryDy=0;entryPerimeter=0;" edge="1" parent="1" target="8-64ufqz5OiNv8aODQqd-5">
          <mxGeometry relative="1" as="geometry">
            <mxPoint x="450" y="218" as="sourcePoint" />
            <mxPoint x="600" y="218" as="targetPoint" />
            <Array as="points" />
          </mxGeometry>
        </mxCell>
        <mxCell id="8-64ufqz5OiNv8aODQqd-19" value="n" style="text;html=1;align=center;verticalAlign=middle;resizable=0;points=[];autosize=1;strokeColor=none;fillColor=none;" vertex="1" parent="1">
          <mxGeometry x="525" y="186" width="30" height="30" as="geometry" />
        </mxCell>
        <mxCell id="8-64ufqz5OiNv8aODQqd-20" value="do" style="rhombus;whiteSpace=wrap;html=1;" vertex="1" parent="1">
          <mxGeometry x="120" y="438" width="80" height="80" as="geometry" />
        </mxCell>
        <mxCell id="8-64ufqz5OiNv8aODQqd-21" value="" style="endArrow=classic;html=1;rounded=0;exitX=0.5;exitY=0;exitDx=0;exitDy=0;" edge="1" parent="1" source="8-64ufqz5OiNv8aODQqd-20">
          <mxGeometry width="50" height="50" relative="1" as="geometry">
            <mxPoint x="160" y="428" as="sourcePoint" />
            <mxPoint x="160" y="288" as="targetPoint" />
          </mxGeometry>
        </mxCell>
        <mxCell id="8-64ufqz5OiNv8aODQqd-22" value="" style="endArrow=none;html=1;rounded=0;exitX=1;exitY=0.5;exitDx=0;exitDy=0;entryX=-0.013;entryY=0.322;entryDx=0;entryDy=0;entryPerimeter=0;" edge="1" parent="1" source="8-64ufqz5OiNv8aODQqd-20" target="8-64ufqz5OiNv8aODQqd-10">
          <mxGeometry width="50" height="50" relative="1" as="geometry">
            <mxPoint x="280" y="518" as="sourcePoint" />
            <mxPoint x="330" y="468" as="targetPoint" />
          </mxGeometry>
        </mxCell>
        <mxCell id="8-64ufqz5OiNv8aODQqd-23" value="Password" style="ellipse;whiteSpace=wrap;html=1;" vertex="1" parent="1">
          <mxGeometry x="30" y="90" width="100" height="50" as="geometry" />
        </mxCell>
        <mxCell id="8-64ufqz5OiNv8aODQqd-24" value="Name" style="ellipse;whiteSpace=wrap;html=1;" vertex="1" parent="1">
          <mxGeometry x="-120" y="276" width="110" height="54" as="geometry" />
        </mxCell>
        <mxCell id="8-64ufqz5OiNv8aODQqd-25" value="About" style="ellipse;whiteSpace=wrap;html=1;" vertex="1" parent="1">
          <mxGeometry x="230" y="90" width="100" height="50" as="geometry" />
        </mxCell>
        <mxCell id="8-64ufqz5OiNv8aODQqd-26" value="Email" style="ellipse;whiteSpace=wrap;html=1;" vertex="1" parent="1">
          <mxGeometry x="-110" y="160" width="110" height="66" as="geometry" />
        </mxCell>
        <mxCell id="8-64ufqz5OiNv8aODQqd-27" value="Id" style="ellipse;whiteSpace=wrap;html=1;fillColor=#ffe6cc;strokeColor=#d79b00;" vertex="1" parent="1">
          <mxGeometry x="10" y="330" width="100" height="50" as="geometry" />
        </mxCell>
        <mxCell id="8-64ufqz5OiNv8aODQqd-28" value="" style="endArrow=none;html=1;rounded=0;" edge="1" parent="1">
          <mxGeometry width="50" height="50" relative="1" as="geometry">
            <mxPoint x="50" y="330" as="sourcePoint" />
            <mxPoint x="100" y="280" as="targetPoint" />
          </mxGeometry>
        </mxCell>
        <mxCell id="8-64ufqz5OiNv8aODQqd-29" value="" style="endArrow=none;html=1;rounded=0;" edge="1" parent="1">
          <mxGeometry width="50" height="50" relative="1" as="geometry">
            <mxPoint x="-20" y="290" as="sourcePoint" />
            <mxPoint x="30" y="240" as="targetPoint" />
          </mxGeometry>
        </mxCell>
        <mxCell id="8-64ufqz5OiNv8aODQqd-30" value="" style="endArrow=none;html=1;rounded=0;" edge="1" parent="1">
          <mxGeometry width="50" height="50" relative="1" as="geometry">
            <mxPoint x="200" y="180" as="sourcePoint" />
            <mxPoint x="250" y="130" as="targetPoint" />
          </mxGeometry>
        </mxCell>
        <mxCell id="8-64ufqz5OiNv8aODQqd-31" value="" style="endArrow=none;html=1;rounded=0;exitX=1;exitY=0.5;exitDx=0;exitDy=0;entryX=0;entryY=0.177;entryDx=0;entryDy=0;entryPerimeter=0;" edge="1" parent="1" source="8-64ufqz5OiNv8aODQqd-26" target="C-vyLk0tnHw3VtMMgP7b-23">
          <mxGeometry width="50" height="50" relative="1" as="geometry">
            <mxPoint x="-50" y="110" as="sourcePoint" />
            <mxPoint y="60" as="targetPoint" />
          </mxGeometry>
        </mxCell>
        <mxCell id="8-64ufqz5OiNv8aODQqd-32" value="" style="endArrow=none;html=1;rounded=0;entryX=0.673;entryY=1.02;entryDx=0;entryDy=0;entryPerimeter=0;exitX=0.25;exitY=0;exitDx=0;exitDy=0;" edge="1" parent="1" source="C-vyLk0tnHw3VtMMgP7b-23" target="8-64ufqz5OiNv8aODQqd-23">
          <mxGeometry width="50" height="50" relative="1" as="geometry">
            <mxPoint x="130" y="170" as="sourcePoint" />
            <mxPoint x="180" y="120" as="targetPoint" />
          </mxGeometry>
        </mxCell>
        <mxCell id="8-64ufqz5OiNv8aODQqd-33" value="Comment" style="ellipse;whiteSpace=wrap;html=1;" vertex="1" parent="1">
          <mxGeometry x="230" y="540" width="100" height="50" as="geometry" />
        </mxCell>
        <mxCell id="8-64ufqz5OiNv8aODQqd-34" value="Comment_ID" style="ellipse;whiteSpace=wrap;html=1;" vertex="1" parent="1">
          <mxGeometry x="310" y="610" width="100" height="50" as="geometry" />
        </mxCell>
        <mxCell id="8-64ufqz5OiNv8aODQqd-35" value="Post_ID" style="ellipse;whiteSpace=wrap;html=1;fillColor=#dae8fc;strokeColor=#6c8ebf;" vertex="1" parent="1">
          <mxGeometry x="450" y="640" width="100" height="50" as="geometry" />
        </mxCell>
        <mxCell id="8-64ufqz5OiNv8aODQqd-36" value="User_ID" style="ellipse;whiteSpace=wrap;html=1;fillColor=#ffe6cc;strokeColor=#d79b00;" vertex="1" parent="1">
          <mxGeometry x="600" y="578" width="100" height="50" as="geometry" />
        </mxCell>
        <mxCell id="8-64ufqz5OiNv8aODQqd-37" value="" style="endArrow=none;html=1;rounded=0;entryX=0.5;entryY=1;entryDx=0;entryDy=0;exitX=0.4;exitY=0.02;exitDx=0;exitDy=0;exitPerimeter=0;" edge="1" parent="1" source="8-64ufqz5OiNv8aODQqd-35" target="8-64ufqz5OiNv8aODQqd-10">
          <mxGeometry width="50" height="50" relative="1" as="geometry">
            <mxPoint x="440" y="650" as="sourcePoint" />
            <mxPoint x="490" y="600" as="targetPoint" />
          </mxGeometry>
        </mxCell>
        <mxCell id="8-64ufqz5OiNv8aODQqd-38" value="" style="endArrow=none;html=1;rounded=0;exitX=1;exitY=0.5;exitDx=0;exitDy=0;entryX=0;entryY=0.75;entryDx=0;entryDy=0;" edge="1" parent="1" source="8-64ufqz5OiNv8aODQqd-33" target="8-64ufqz5OiNv8aODQqd-10">
          <mxGeometry width="50" height="50" relative="1" as="geometry">
            <mxPoint x="350" y="600" as="sourcePoint" />
            <mxPoint x="400" y="550" as="targetPoint" />
          </mxGeometry>
        </mxCell>
        <mxCell id="8-64ufqz5OiNv8aODQqd-39" value="" style="endArrow=none;html=1;rounded=0;" edge="1" parent="1">
          <mxGeometry width="50" height="50" relative="1" as="geometry">
            <mxPoint x="370" y="610" as="sourcePoint" />
            <mxPoint x="410" y="570" as="targetPoint" />
          </mxGeometry>
        </mxCell>
        <mxCell id="8-64ufqz5OiNv8aODQqd-40" value="" style="endArrow=none;html=1;rounded=0;exitX=0.978;exitY=0.851;exitDx=0;exitDy=0;exitPerimeter=0;entryX=0.02;entryY=0.247;entryDx=0;entryDy=0;entryPerimeter=0;" edge="1" parent="1" source="8-64ufqz5OiNv8aODQqd-10" target="8-64ufqz5OiNv8aODQqd-36">
          <mxGeometry width="50" height="50" relative="1" as="geometry">
            <mxPoint x="570" y="600" as="sourcePoint" />
            <mxPoint x="620" y="550" as="targetPoint" />
            <Array as="points">
              <mxPoint x="610" y="590" />
            </Array>
          </mxGeometry>
        </mxCell>
        <mxCell id="8-64ufqz5OiNv8aODQqd-41" value="Post_ID" style="ellipse;whiteSpace=wrap;html=1;fillColor=#dae8fc;strokeColor=#6c8ebf;" vertex="1" parent="1">
          <mxGeometry x="470" y="90" width="100" height="50" as="geometry" />
        </mxCell>
        <mxCell id="8-64ufqz5OiNv8aODQqd-42" value="Title" style="ellipse;whiteSpace=wrap;html=1;" vertex="1" parent="1">
          <mxGeometry x="600" y="70" width="100" height="50" as="geometry" />
        </mxCell>
        <mxCell id="8-64ufqz5OiNv8aODQqd-43" value="Content" style="ellipse;whiteSpace=wrap;html=1;" vertex="1" parent="1">
          <mxGeometry x="750" y="70" width="100" height="50" as="geometry" />
        </mxCell>
        <mxCell id="8-64ufqz5OiNv8aODQqd-44" value="Image" style="ellipse;whiteSpace=wrap;html=1;" vertex="1" parent="1">
          <mxGeometry x="770" y="166" width="100" height="50" as="geometry" />
        </mxCell>
        <mxCell id="8-64ufqz5OiNv8aODQqd-45" value="Category_ID" style="ellipse;whiteSpace=wrap;html=1;fillColor=#f8cecc;strokeColor=#b85450;" vertex="1" parent="1">
          <mxGeometry x="770" y="246" width="100" height="50" as="geometry" />
        </mxCell>
        <mxCell id="8-64ufqz5OiNv8aODQqd-46" value="User_Id" style="ellipse;whiteSpace=wrap;html=1;fillColor=#ffe6cc;strokeColor=#d79b00;" vertex="1" parent="1">
          <mxGeometry x="730" y="330" width="100" height="50" as="geometry" />
        </mxCell>
        <mxCell id="8-64ufqz5OiNv8aODQqd-48" value="" style="endArrow=none;html=1;rounded=0;entryX=-0.006;entryY=0.111;entryDx=0;entryDy=0;entryPerimeter=0;exitX=1;exitY=1;exitDx=0;exitDy=0;" edge="1" parent="1" source="8-64ufqz5OiNv8aODQqd-41" target="8-64ufqz5OiNv8aODQqd-5">
          <mxGeometry width="50" height="50" relative="1" as="geometry">
            <mxPoint x="560" y="180" as="sourcePoint" />
            <mxPoint x="610" y="130" as="targetPoint" />
          </mxGeometry>
        </mxCell>
        <mxCell id="8-64ufqz5OiNv8aODQqd-49" value="" style="endArrow=none;html=1;rounded=0;entryX=0.5;entryY=1;entryDx=0;entryDy=0;exitX=0.25;exitY=0;exitDx=0;exitDy=0;" edge="1" parent="1" source="8-64ufqz5OiNv8aODQqd-5" target="8-64ufqz5OiNv8aODQqd-42">
          <mxGeometry width="50" height="50" relative="1" as="geometry">
            <mxPoint x="570" y="190" as="sourcePoint" />
            <mxPoint x="620" y="140" as="targetPoint" />
            <Array as="points" />
          </mxGeometry>
        </mxCell>
        <mxCell id="8-64ufqz5OiNv8aODQqd-50" value="" style="endArrow=none;html=1;rounded=0;entryX=0;entryY=1;entryDx=0;entryDy=0;exitX=1;exitY=0;exitDx=0;exitDy=0;" edge="1" parent="1" source="8-64ufqz5OiNv8aODQqd-5" target="8-64ufqz5OiNv8aODQqd-43">
          <mxGeometry width="50" height="50" relative="1" as="geometry">
            <mxPoint x="580" y="200" as="sourcePoint" />
            <mxPoint x="630" y="150" as="targetPoint" />
          </mxGeometry>
        </mxCell>
        <mxCell id="8-64ufqz5OiNv8aODQqd-51" value="" style="endArrow=none;html=1;rounded=0;entryX=0;entryY=0.5;entryDx=0;entryDy=0;exitX=1;exitY=0.25;exitDx=0;exitDy=0;" edge="1" parent="1" source="8-64ufqz5OiNv8aODQqd-5" target="8-64ufqz5OiNv8aODQqd-44">
          <mxGeometry width="50" height="50" relative="1" as="geometry">
            <mxPoint x="750" y="153" as="sourcePoint" />
            <mxPoint x="775" y="123" as="targetPoint" />
          </mxGeometry>
        </mxCell>
        <mxCell id="8-64ufqz5OiNv8aODQqd-52" value="" style="endArrow=none;html=1;rounded=0;entryX=0;entryY=0.5;entryDx=0;entryDy=0;exitX=0.983;exitY=0.872;exitDx=0;exitDy=0;exitPerimeter=0;" edge="1" parent="1" source="8-64ufqz5OiNv8aODQqd-5" target="8-64ufqz5OiNv8aODQqd-45">
          <mxGeometry width="50" height="50" relative="1" as="geometry">
            <mxPoint x="760" y="163" as="sourcePoint" />
            <mxPoint x="785" y="133" as="targetPoint" />
          </mxGeometry>
        </mxCell>
        <mxCell id="8-64ufqz5OiNv8aODQqd-53" value="" style="endArrow=none;html=1;rounded=0;entryX=0.233;entryY=0.18;entryDx=0;entryDy=0;exitX=0.844;exitY=0.994;exitDx=0;exitDy=0;exitPerimeter=0;entryPerimeter=0;" edge="1" parent="1" source="8-64ufqz5OiNv8aODQqd-5" target="8-64ufqz5OiNv8aODQqd-46">
          <mxGeometry width="50" height="50" relative="1" as="geometry">
            <mxPoint x="770" y="173" as="sourcePoint" />
            <mxPoint x="795" y="143" as="targetPoint" />
          </mxGeometry>
        </mxCell>
        <mxCell id="8-64ufqz5OiNv8aODQqd-55" style="edgeStyle=orthogonalEdgeStyle;rounded=0;orthogonalLoop=1;jettySize=auto;html=1;" edge="1" parent="1" source="8-64ufqz5OiNv8aODQqd-54">
          <mxGeometry relative="1" as="geometry">
            <mxPoint x="715" y="140" as="targetPoint" />
          </mxGeometry>
        </mxCell>
        <mxCell id="8-64ufqz5OiNv8aODQqd-54" value="contains" style="rhombus;whiteSpace=wrap;html=1;" vertex="1" parent="1">
          <mxGeometry x="675" y="-40" width="80" height="80" as="geometry" />
        </mxCell>
        <mxCell id="8-64ufqz5OiNv8aODQqd-57" value="Category" style="rounded=0;whiteSpace=wrap;html=1;" vertex="1" parent="1">
          <mxGeometry x="440" y="-40" width="120" height="60" as="geometry" />
        </mxCell>
        <mxCell id="8-64ufqz5OiNv8aODQqd-58" value="" style="endArrow=none;html=1;rounded=0;exitX=1.006;exitY=0.639;exitDx=0;exitDy=0;exitPerimeter=0;" edge="1" parent="1" source="8-64ufqz5OiNv8aODQqd-57">
          <mxGeometry width="50" height="50" relative="1" as="geometry">
            <mxPoint x="610" as="sourcePoint" />
            <mxPoint x="670" as="targetPoint" />
            <Array as="points" />
          </mxGeometry>
        </mxCell>
        <mxCell id="8-64ufqz5OiNv8aODQqd-59" value="1" style="text;html=1;align=center;verticalAlign=middle;resizable=0;points=[];autosize=1;strokeColor=none;fillColor=none;" vertex="1" parent="1">
          <mxGeometry x="605" y="-32" width="30" height="30" as="geometry" />
        </mxCell>
        <mxCell id="8-64ufqz5OiNv8aODQqd-60" value="n" style="text;html=1;align=center;verticalAlign=middle;resizable=0;points=[];autosize=1;strokeColor=none;fillColor=none;" vertex="1" parent="1">
          <mxGeometry x="725" y="38" width="30" height="30" as="geometry" />
        </mxCell>
        <mxCell id="8-64ufqz5OiNv8aODQqd-62" value="Roles" style="rounded=0;whiteSpace=wrap;html=1;" vertex="1" parent="1">
          <mxGeometry x="-120" y="20" width="120" height="60" as="geometry" />
        </mxCell>
        <mxCell id="8-64ufqz5OiNv8aODQqd-63" value="Admin" style="ellipse;whiteSpace=wrap;html=1;" vertex="1" parent="1">
          <mxGeometry x="-130" y="-60" width="120" height="60" as="geometry" />
        </mxCell>
        <mxCell id="8-64ufqz5OiNv8aODQqd-64" value="Users" style="ellipse;whiteSpace=wrap;html=1;" vertex="1" parent="1">
          <mxGeometry x="30" y="10" width="120" height="50" as="geometry" />
        </mxCell>
        <mxCell id="8-64ufqz5OiNv8aODQqd-65" style="edgeStyle=orthogonalEdgeStyle;rounded=0;orthogonalLoop=1;jettySize=auto;html=1;entryX=0.583;entryY=0.95;entryDx=0;entryDy=0;entryPerimeter=0;" edge="1" parent="1" source="8-64ufqz5OiNv8aODQqd-62" target="8-64ufqz5OiNv8aODQqd-63">
          <mxGeometry relative="1" as="geometry" />
        </mxCell>
        <mxCell id="8-64ufqz5OiNv8aODQqd-66" style="edgeStyle=orthogonalEdgeStyle;rounded=0;orthogonalLoop=1;jettySize=auto;html=1;entryX=0.033;entryY=0.793;entryDx=0;entryDy=0;entryPerimeter=0;" edge="1" parent="1" source="8-64ufqz5OiNv8aODQqd-62" target="8-64ufqz5OiNv8aODQqd-64">
          <mxGeometry relative="1" as="geometry" />
        </mxCell>
        <mxCell id="8-64ufqz5OiNv8aODQqd-68" value="" style="edgeStyle=orthogonalEdgeStyle;rounded=0;orthogonalLoop=1;jettySize=auto;html=1;" edge="1" parent="1" source="8-64ufqz5OiNv8aODQqd-67" target="8-64ufqz5OiNv8aODQqd-57">
          <mxGeometry relative="1" as="geometry">
            <Array as="points">
              <mxPoint x="400" y="-10" />
              <mxPoint x="400" y="-10" />
            </Array>
          </mxGeometry>
        </mxCell>
        <mxCell id="8-64ufqz5OiNv8aODQqd-67" value="Post" style="ellipse;whiteSpace=wrap;html=1;" vertex="1" parent="1">
          <mxGeometry x="300" y="-10" width="100" height="50" as="geometry" />
        </mxCell>
        <mxCell id="8-64ufqz5OiNv8aODQqd-72" style="edgeStyle=orthogonalEdgeStyle;rounded=0;orthogonalLoop=1;jettySize=auto;html=1;entryX=0.25;entryY=1;entryDx=0;entryDy=0;" edge="1" parent="1" source="8-64ufqz5OiNv8aODQqd-70" target="8-64ufqz5OiNv8aODQqd-57">
          <mxGeometry relative="1" as="geometry">
            <Array as="points">
              <mxPoint x="470" y="50" />
              <mxPoint x="470" y="50" />
            </Array>
          </mxGeometry>
        </mxCell>
        <mxCell id="8-64ufqz5OiNv8aODQqd-70" value="Comment" style="ellipse;whiteSpace=wrap;html=1;" vertex="1" parent="1">
          <mxGeometry x="370" y="50" width="100" height="50" as="geometry" />
        </mxCell>
      </root>
    </mxGraphModel>
  </diagram>
</mxfile>
